<?xml version="1.0" encoding="utf-8"?>
<!-- Generator: Adobe Illustrator 19.0.0, SVG Export Plug-In . SVG Version: 6.00 Build 0)  -->
<svg version="1.1" id="Capa_1" xmlns="http://www.w3.org/2000/svg" xmlns:xlink="http://www.w3.org/1999/xlink" x="0px" y="0px"
	 viewBox="0 0 374.7 351.8" style="enable-background:new 0 0 374.7 351.8;" xml:space="preserve">
<style type="text/css">
	.st0{fill:#ED1E79;}
	.st1{fill:#3FA9F5;}
	.st2{fill:#8CC63F;}
	.st3{fill:#662D91;}
	.st4{fill:#FBB03B;}

	.animated {
 		-webkit-animation-duration: 2s;
		animation-duration: 2s;
 		-webkit-animation-fill-mode: both;
		animation-fill-mode: both;
		animation-iteration-count:infinite;
	}
	@-webkit-keyframes flash {
		0%, 50%, 100% {
			opacity: 1;
		}
		25%, 75% {
 			opacity: 0;
		}
	}
	@keyframes flash {
 		0%, 50%, 100% {
 			opacity: 1;
 		}
		25%, 75% {
 			opacity: 0;
 		}
	}
	.flash {
 		-webkit-animation-name: flash;
		animation-name: flash;
		animation-iteration-count:infinite;
	}
</style>
<rect id="XMLID_281_" width="374.7" height="351.8"/>
<g id="XMLID_213_">
	<g id="XMLID_235_">
		<path id="XMLID_88_" class="st0" d="M119.4,133V57.4c0-1.4,0.5-2.6,1.5-3.6c1-1,2.2-1.5,3.6-1.5c1.4,0,2.6,0.5,3.6,1.5
			c1,1,1.5,2.2,1.5,3.6v65.4h36.1c1.4,0,2.6,0.5,3.7,1.5c1,1,1.5,2.2,1.5,3.6s-0.5,2.6-1.5,3.6c-1,1-2.3,1.5-3.7,1.5H119.4z"/>
		<path id="XMLID_90_" class="st0" d="M189.2,96.2h20c1.1,0,2.7,0.2,4.7,0.7l-0.1-7.2c0-1.4-0.5-2.6-1.5-3.6c-1-1-2.2-1.5-3.6-1.5
			h-19.4c-1.4,0-2.6-0.5-3.6-1.5c-1-1-1.5-2.2-1.5-3.6c0-1.4,0.5-2.6,1.5-3.6c1-1,2.2-1.5,3.6-1.5h19.4c4.2,0,7.8,1.5,10.8,4.4
			s4.5,6.6,4.7,10.9l1.3,38.2c0,1.4-0.5,2.6-1.5,3.6c-1,1-2.2,1.5-3.6,1.5c-1.5,0-2.7-0.5-3.7-1.5c-1-1-1.5-2.2-1.5-3.6l-8.6,5.1
			h-17.3c-4.3,0-8-1.5-11-4.5c-3-3-4.5-6.6-4.5-10.9v-6c0-4.3,1.5-7.9,4.5-10.9C181.3,97.7,184.9,96.2,189.2,96.2z M214.7,116.1
			l-0.3-4.3c0-1.5-0.5-2.7-1.5-3.6c-1-1-2.2-1.5-3.6-1.5h-20.1c-1.4,0-2.6,0.5-3.6,1.5c-1,1-1.5,2.2-1.5,3.6v5.7
			c0,1.4,0.5,2.6,1.5,3.6c1,1,2.2,1.5,3.6,1.5h14.4L214.7,116.1z"/>
		<path id="XMLID_93_" class="st0" d="M242.9,74.4h23.4c3.6,0,6.9,1.1,9.7,3.3c2.8,2.2,4.2,4.3,4.2,6.4c0,1.5-0.5,2.7-1.5,3.6
			c-1,0.9-2.2,1.4-3.4,1.4c-1.6,0-3.1-0.7-4.4-2.2c-1.3-1.5-2.7-2.2-4.2-2.2h-23.1c-2.3,0-3.4,0.9-3.4,2.8c0,1.3,0.8,2.3,2.3,3
			l27.1,12.1c2.8,1.2,5,3.2,6.8,5.9c1.8,2.7,2.6,5.7,2.6,9c0,4.4-1.5,8.1-4.6,11.1s-6.6,4.6-10.5,4.6H243c-3.6,0-6.9-1.1-9.9-3.2
			c-3.1-2.1-4.6-4.2-4.6-6.3c0-1.3,0.5-2.5,1.5-3.6c1-1,2.3-1.5,3.9-1.5c1.3,0,2.7,0.7,4.2,2.2c1.5,1.5,3.6,2.2,6.4,2.2h19
			c1.5,0,2.8-0.6,3.8-1.7c1-1.2,1.5-2.5,1.5-4c0-2.3-1.1-4-3.4-5l-27.4-12.3c-2.6-1.2-4.7-2.9-6.1-5.1c-1.4-2.2-2.1-4.5-2.1-6.8
			c0-3.6,1.3-6.8,3.8-9.5C236.1,75.7,239.2,74.4,242.9,74.4z"/>
	</g>
	<g id="XMLID_234_">
		<path id="XMLID_80_" class="st1" d="M300.9,112.3h-12.1c-0.7,0-1.3-0.2-1.8-0.7c-0.5-0.5-0.7-1.1-0.7-1.8c0-0.7,0.2-1.3,0.7-1.9
			c0.5-0.5,1.1-0.8,1.8-0.8h35.3c0.7,0,1.3,0.3,1.8,0.8c0.5,0.5,0.7,1.1,0.7,1.8c0,0.7-0.2,1.3-0.7,1.8c-0.5,0.5-1.1,0.7-1.8,0.7
			H323c2.5,2.5,3.7,4.9,3.7,7v4.4c0,1.8-0.8,3.5-2.3,5.3l-1.8,2.1c-0.5,0.5-1.2,1-2.3,1.4c-1.1,0.4-2.1,0.7-3.1,0.7h-10.4
			c-1.2,0-2.3-0.2-3.4-0.7c-1.1-0.5-1.9-1.1-2.4-1.7l-1.8-2.1c-1.3-1.5-1.9-3.3-1.9-5.3v-3.7c0-2,0.7-3.9,2.1-5.5L300.9,112.3z
			 M302.5,119.8v3.6c0,0.8,0.3,1.4,0.8,2.1l1.4,1.7c0.5,0.6,1.2,0.9,1.9,0.9h10.8c0.7,0,1.3-0.3,1.9-1l1.4-1.7
			c0.5-0.5,0.7-1.1,0.7-1.7v-4.2c0-0.6-0.3-1.2-0.9-2l-3.3-4.1c-0.6-0.7-1.3-1-2.2-1h-5.5c-1.2,0-2.1,0.4-2.7,1.1l-3.6,4.2
			C302.7,118.1,302.5,118.9,302.5,119.8z"/>
		<path id="XMLID_83_" class="st1" d="M307,78.6h6.2c0.7,0,1.3,0.3,1.8,0.8c0.5,0.5,0.8,1.1,0.8,1.8v18.2h1.5c0.9,0,1.6-0.4,2.2-1.1
			l1.2-1.5c0.6-0.8,0.9-1.6,0.9-2.3V81.2c0-0.7,0.2-1.3,0.7-1.8c0.5-0.5,1.1-0.8,1.8-0.8c0.7,0,1.3,0.3,1.8,0.8s0.8,1.1,0.8,1.8
			v13.6c0,0.9-0.2,1.8-0.6,2.8c-0.4,1-0.8,1.7-1.2,2.2l-2,2.3c-0.6,0.7-1.4,1.3-2.4,1.8c-1,0.5-1.9,0.7-2.8,0.7h-11.7
			c-0.7,0-1.6-0.3-2.7-0.8c-1.1-0.5-2-1.2-2.6-2l-1.7-2.1c-1.1-1.4-1.7-3-1.7-4.7v-7.2c0-1.8,0.8-3.5,2.3-5.1l1.8-1.9
			C302.7,79.3,304.5,78.6,307,78.6z M306.6,99.3h4V83.7H307c-1,0-1.7,0.3-2.2,0.9l-1.3,1.5c-0.6,0.8-0.9,1.5-0.9,2.1v6.5
			c0,0.8,0.3,1.5,0.8,2.2l1.2,1.5C305.1,99,305.8,99.3,306.6,99.3z"/>
		<path id="XMLID_86_" class="st1" d="M326.7,55.3v15.6c0,0.7-0.3,1.3-0.8,1.8s-1.1,0.8-1.8,0.8c-0.7,0-1.3-0.3-1.8-0.8
			c-0.5-0.5-0.8-1.1-0.8-1.8v-5.1h-30.1v5.2c0,0.7-0.2,1.3-0.7,1.8c-0.5,0.5-1.1,0.8-1.8,0.8c-0.7,0-1.3-0.3-1.8-0.8
			c-0.5-0.5-0.7-1.1-0.7-1.8V63c0-0.7,0.3-1.3,0.8-1.8s1.1-0.8,1.8-0.8h32.7v-5.2c0-0.7,0.3-1.3,0.8-1.8c0.5-0.5,1.1-0.8,1.8-0.8
			c0.7,0,1.3,0.3,1.8,0.8C326.4,53.9,326.7,54.5,326.7,55.3z"/>
	</g>
	<g id="XMLID_216_">
		<path id="XMLID_77_" class="st2" d="M76.4,111.8v15c0,1.7-0.6,3.1-1.8,4.4c-1.2,1.2-2.6,1.8-4.3,1.8c-1.7,0-3.1-0.6-4.3-1.8
			c-1.2-1.2-1.8-2.7-1.8-4.4v-15H58c-1.7,0-3.1-0.6-4.3-1.8c-1.2-1.2-1.8-2.6-1.8-4.3c0-1.6,0.6-3.1,1.8-4.3
			c1.2-1.2,2.6-1.8,4.3-1.8h6.1V85.7H58c-1.7,0-3.1-0.6-4.3-1.8c-1.2-1.2-1.8-2.6-1.8-4.3c0-1.7,0.6-3.2,1.8-4.3
			c1.2-1.2,2.6-1.7,4.3-1.7h6.2v-15c0-1.7,0.6-3.1,1.8-4.3c1.2-1.2,2.6-1.8,4.3-1.8c1.6,0,3.1,0.6,4.3,1.8c1.2,1.2,1.8,2.6,1.8,4.3
			v15h12.2v-15c0-1.7,0.6-3.1,1.8-4.3c1.2-1.2,2.6-1.8,4.3-1.8c1.7,0,3.1,0.6,4.4,1.8c1.2,1.2,1.8,2.6,1.8,4.3v15h6.2
			c1.6,0,3.1,0.6,4.3,1.8c1.2,1.2,1.8,2.6,1.8,4.3c0,1.7-0.7,3.2-2,4.4c-1.3,1.2-2.7,1.8-4.1,1.8H101v13.8h6.1c1.6,0,3,0.6,4.2,1.8
			s1.8,2.6,1.8,4.3c0,1.6-0.6,3-1.7,4.2c-1.1,1.2-2.6,1.8-4.4,1.8h-6.2v15c0,1.7-0.6,3.1-1.8,4.4c-1.2,1.2-2.7,1.8-4.4,1.8
			c-1.6,0-3.1-0.6-4.3-1.8c-1.2-1.2-1.8-2.7-1.8-4.4v-15H76.4z M76.4,85.9v13.8h12.2V85.9H76.4z"/>
	</g>
	<g id="XMLID_215_">
		<path id="XMLID_67_" class="st3" d="M83.2,232.9v19.8c0,4.2-1.4,7.6-4.1,10.2c2.7,2.5,4.1,5.9,4.1,10.2V293h15.5
			c1.4,0,2.6,0.5,3.6,1.5c1,1,1.5,2.2,1.5,3.6c0,1.4-0.5,2.6-1.5,3.6c-1,1-2.2,1.5-3.6,1.5H83.2c-2.8,0-5.2-1-7.2-3.1
			c-2-2.1-3-4.4-3-7.1v-19.5c0-1.4-0.5-2.7-1.6-3.8c-1.1-1.1-2.3-1.7-3.6-1.7H57.6c-1.4,0-2.6-0.5-3.6-1.5c-1-1-1.5-2.2-1.5-3.6
			c0-1.4,0.5-2.6,1.5-3.6c1-1,2.2-1.5,3.6-1.5h10.2c1.4,0,2.6-0.5,3.6-1.6c1.1-1.1,1.6-2.4,1.6-3.8v-19.6c0-2.6,1-5,3-7
			c2-2,4.4-3.1,7.2-3.1h15.5c1.4,0,2.6,0.5,3.6,1.5c1,1,1.5,2.2,1.5,3.6c0,1.4-0.5,2.6-1.5,3.6c-1,1-2.2,1.5-3.6,1.5H83.2z"/>
		<path id="XMLID_69_" class="st3 animated flash" d="M131.3,271.2h11.5c1.5,0,2.9,0.5,4,1.5c1.1,1,1.7,2.2,1.7,3.6v8.7c0,1.4-0.6,2.6-1.7,3.7
			c-1.1,1-2.5,1.5-4,1.5h-11.7c-1.6,0-2.9-0.5-4-1.5c-1.1-1-1.7-2.2-1.7-3.6v-8.8c0-1.4,0.6-2.6,1.7-3.6
			C128.3,271.7,129.7,271.2,131.3,271.2z"/>
		<path id="XMLID_71_" class="st3 animated flash" d="M187.5,271.2H199c1.5,0,2.9,0.5,4,1.5c1.1,1,1.7,2.2,1.7,3.6v8.7c0,1.4-0.6,2.6-1.7,3.7
			c-1.1,1-2.5,1.5-4,1.5h-11.7c-1.6,0-2.9-0.5-4-1.5c-1.1-1-1.7-2.2-1.7-3.6v-8.8c0-1.4,0.6-2.6,1.7-3.6
			C184.5,271.7,185.9,271.2,187.5,271.2z"/>
		<path id="XMLID_73_" class="st3 animated flash" d="M243.7,271.2h11.5c1.5,0,2.9,0.5,4,1.5c1.1,1,1.7,2.2,1.7,3.6v8.7c0,1.4-0.6,2.6-1.7,3.7
			c-1.1,1-2.5,1.5-4,1.5h-11.7c-1.6,0-2.9-0.5-4-1.5c-1.1-1-1.7-2.2-1.7-3.6v-8.8c0-1.4,0.6-2.6,1.7-3.6
			C240.7,271.7,242.1,271.2,243.7,271.2z"/>
		<path id="XMLID_75_" class="st3" d="M296.3,293v-19.9c0-4.2,1.4-7.6,4.1-10.2c-2.7-2.5-4.1-5.8-4.1-10v-20h-15.5
			c-1.4,0-2.6-0.5-3.6-1.5c-1-1-1.5-2.2-1.5-3.6c0-1.4,0.5-2.6,1.5-3.6c1-1,2.2-1.5,3.6-1.5h15.5c2.7,0,5.1,1,7.2,3.1
			c2,2.1,3,4.4,3,7.1v19.6c0,1.4,0.5,2.7,1.5,3.7c1,1.1,2.3,1.6,3.7,1.6h10.2c1.4,0,2.6,0.5,3.6,1.5c1,1,1.5,2.2,1.5,3.6
			c0,1.5-0.5,2.7-1.5,3.7c-1,1-2.2,1.5-3.6,1.5h-10.2c-1.5,0-2.7,0.5-3.7,1.6c-1,1.1-1.5,2.3-1.5,3.7v19.7c0,2.6-1,4.9-3.1,7
			c-2,2.1-4.4,3.1-7.1,3.1h-15.5c-1.4,0-2.6-0.5-3.6-1.5c-1-1-1.5-2.2-1.5-3.6c0-1.4,0.5-2.6,1.5-3.6c1-1,2.2-1.5,3.6-1.5H296.3z"/>
	</g>
	<g id="XMLID_214_">
		<path id="XMLID_54_" class="st4" d="M52.6,213.7v-76.9h47.1c1.4,0,2.6,0.5,3.6,1.5c1,1,1.6,2.2,1.6,3.6c0,1.4-0.5,2.7-1.5,3.7
			c-1,1-2.2,1.6-3.6,1.6H63v16.3h26.3c1.4,0,2.7,0.5,3.7,1.5c1,1,1.5,2.2,1.5,3.7c0,1.4-0.5,2.7-1.5,3.7c-1,1-2.2,1.5-3.7,1.5H63
			v39.7c0,1.4-0.5,2.7-1.5,3.7c-1,1-2.2,1.5-3.7,1.5c-1.4,0-2.7-0.5-3.7-1.5C53.2,216.3,52.6,215.1,52.6,213.7z"/>
		<path id="XMLID_56_" class="st4" d="M160.4,178v21.9c0,4.7-2.2,9-6.6,12.9s-8.9,5.9-13.6,5.9h-12.2c-4.7,0-9.3-2-13.6-6
			c-4.3-4-6.5-8.3-6.5-12.8V178c0-4.5,2.1-8.8,6.3-12.8c4.2-4,8.8-6,13.7-6h12.2c4.7-0.1,9.2,1.9,13.6,5.8S160.4,173.2,160.4,178z
			 M118.5,178.4v21c0,1.9,0.7,3.4,2,4.5l3.9,3.3c0.9,0.7,2.1,1.1,3.6,1.1h12c1.8,0,3.4-0.6,4.8-1.9l3.1-2.8c1.3-1,1.9-2.4,1.9-4.1
			v-21c0-2.1-0.6-3.6-1.9-4.6l-3.6-2.9c-1.2-1-2.7-1.5-4.3-1.5h-10.7c-2.3,0-4.2,0.6-5.4,1.7l-3.5,3
			C119.2,175.3,118.5,176.7,118.5,178.4z"/>
		<path id="XMLID_59_" class="st4" d="M188.2,171.3l-14.2,9.2v33.2c0,1.4-0.5,2.6-1.5,3.6c-1,1-2.2,1.5-3.6,1.5
			c-1.4,0-2.6-0.5-3.6-1.5c-1-1-1.5-2.2-1.5-3.6v-49.2c0-1.4,0.5-2.7,1.5-3.7c1-1,2.2-1.6,3.7-1.6c1.4,0,2.6,0.5,3.6,1.6
			c1,1,1.5,2.3,1.5,3.7v3.5l9.5-5.7c3.2-2,6.8-3,10.8-3h4.8c4.1,0,7.7,1.5,10.7,4.4c3,2.9,4.6,6.5,4.8,10.8l1.4,39.3
			c0,1.4-0.5,2.6-1.5,3.6c-1,1-2.3,1.5-3.7,1.5c-1.4,0-2.6-0.5-3.6-1.4c-1-0.9-1.6-2.2-1.6-3.8l-1.5-38.7c-0.1-3.6-2-5.4-5.7-5.4
			h-5.1C191.7,169.5,190,170.1,188.2,171.3z"/>
		<path id="XMLID_61_" class="st4" d="M260.9,166.5V142c0-1.4,0.5-2.7,1.5-3.7c1-1,2.2-1.5,3.6-1.5c1.4,0,2.7,0.5,3.7,1.5
			s1.6,2.2,1.6,3.7v71.7c0,1.4-0.5,2.7-1.5,3.7c-1,1-2.2,1.5-3.6,1.5c-1.5,0-2.7-0.5-3.7-1.5c-1-1-1.5-2.2-1.5-3.7v-2.3
			c-5.1,5-9.8,7.5-14.2,7.5h-8.8c-3.5,0-7.1-1.5-10.6-4.6l-4.3-3.6c-1-0.9-1.9-2.5-2.8-4.8c-0.9-2.2-1.3-4.3-1.3-6.2v-21.1
			c0-2.3,0.5-4.6,1.5-6.8c1-2.2,2.1-3.9,3.5-5l4.3-3.6c3-2.6,6.6-4,10.7-4h7.5c4.1,0,7.8,1.4,11.1,4.3L260.9,166.5z M245.9,169.6
			h-7.2c-1.5,0-2.9,0.6-4.1,1.7l-3.3,2.9c-1.2,1-1.7,2.3-1.7,4v22c0,1.4,0.7,2.7,2,3.9l3.4,2.9c1.1,0.9,2.2,1.4,3.4,1.4h8.5
			c1.1,0,2.4-0.6,4-1.9l8.2-6.8c1.4-1.2,2-2.7,2-4.4V184c0-2.5-0.7-4.4-2.2-5.6l-8.5-7.2C249.2,170.1,247.7,169.6,245.9,169.6z"/>
		<path id="XMLID_64_" class="st4" d="M327,178v21.9c0,4.7-2.2,9-6.6,12.9c-4.4,4-8.9,5.9-13.6,5.9h-12.2c-4.7,0-9.3-2-13.6-6
			s-6.5-8.3-6.5-12.8V178c0-4.5,2.1-8.8,6.3-12.8s8.8-6,13.7-6h12.2c4.7-0.1,9.2,1.9,13.6,5.8C324.8,168.9,327,173.2,327,178z
			 M285.1,178.4v21c0,1.9,0.7,3.4,2,4.5l3.9,3.3c0.9,0.7,2.1,1.1,3.6,1.1h12c1.8,0,3.4-0.6,4.8-1.9l3.1-2.8c1.3-1,1.9-2.4,1.9-4.1
			v-21c0-2.1-0.6-3.6-1.9-4.6L311,171c-1.2-1-2.7-1.5-4.3-1.5H296c-2.3,0-4.2,0.6-5.4,1.7l-3.5,3
			C285.7,175.3,285.1,176.7,285.1,178.4z"/>
	</g>
</g>
<g id="XMLID_53_">
</g>
<g id="XMLID_95_">
</g>
<g id="XMLID_96_">
</g>
<g id="XMLID_97_">
</g>
<g id="XMLID_98_">
</g>
<g id="XMLID_99_">
</g>
<g id="XMLID_100_">
</g>
<g id="XMLID_101_">
</g>
<g id="XMLID_102_">
</g>
<g id="XMLID_103_">
</g>
<g id="XMLID_104_">
</g>
<g id="XMLID_105_">
</g>
<g id="XMLID_106_">
</g>
<g id="XMLID_107_">
</g>
<g id="XMLID_108_">
</g>
</svg>
